<?xml version="1.0" encoding="UTF-8"?>
<svg version="1.1" xmlns="http://www.w3.org/2000/svg" width="500" height="500">
<path d="M0 0 C2.86437801 1.29951499 4.91766277 2.67131952 7.12866211 4.90161133 C7.71284409 5.48594437 8.29702606 6.0702774 8.89891052 6.6723175 C9.51879349 7.30252304 10.13867645 7.93272858 10.77734375 8.58203125 C11.42570694 9.23322433 12.07407013 9.88441742 12.74208069 10.55534363 C14.81196996 12.63640727 16.87480838 14.72430443 18.9375 16.8125 C20.3218028 18.20683985 21.70656357 19.6007252 23.09179688 20.99414062 C25.64470086 23.56335219 28.19490825 26.13517553 30.74194336 28.71020508 C34.87556792 32.88602542 39.02640643 37.03922124 43.25131226 41.12306213 C45.4053707 43.20985619 47.54584234 45.31037607 49.68603516 47.41137695 C50.81840821 48.51837883 51.95519314 49.62088446 53.09619141 50.71899414 C54.7504023 52.31278914 56.38812962 53.92200082 58.0234375 55.53515625 C58.53788422 56.02379654 59.05233093 56.51243683 59.58236694 57.0158844 C60.98974609 58.42211914 60.98974609 58.42211914 63 61 C62.84592514 64.41538832 61.37847818 65.96482894 58.9375 68.25 C58.11572266 69.03117187 58.11572266 69.03117187 57.27734375 69.828125 C56.85582031 70.21484375 56.43429687 70.6015625 56 71 C51.92439623 69.37369071 49.16215169 66.46478852 46.11401367 63.42041016 C45.53636261 62.85108261 44.95871155 62.28175507 44.36355591 61.69517517 C42.45955891 59.81523758 40.56327504 57.92775913 38.66796875 56.0390625 C37.34857236 54.72863149 36.02909802 53.41827897 34.70954895 52.10800171 C31.94789806 49.36282948 29.1906618 46.61330336 26.43579102 43.86132812 C22.89868148 40.3296186 19.34567923 36.81436884 15.78855419 33.30283546 C13.05988736 30.60384338 10.34247596 27.89373445 7.62810707 25.18037033 C6.32239198 23.8788722 5.01253904 22.58151205 3.69856834 21.28834915 C1.86673317 19.48324412 0.05122728 17.66315216 -1.76098633 15.83837891 C-2.309991 15.30420853 -2.85899567 14.77003815 -3.42463684 14.21968079 C-4.90730286 12.70742798 -4.90730286 12.70742798 -7 10 C-6.87211677 6.57907147 -5.38046958 5.03703535 -2.9375 2.75 C-2.38964844 2.22921875 -1.84179688 1.7084375 -1.27734375 1.171875 C-0.64505859 0.59179688 -0.64505859 0.59179688 0 0 Z " fill="#042E56" transform="translate(222,131)"/>
<path d="M0 0 C8 0 8 0 10.1015625 1.98779297 C10.60429687 2.89674316 11.10703125 3.80569336 11.625 4.7421875 C12.18574219 5.72574219 12.74648438 6.70929688 13.32421875 7.72265625 C13.87722656 8.76292969 14.43023437 9.80320312 15 10.875 C15.87591797 12.42380859 15.87591797 12.42380859 16.76953125 14.00390625 C21 21.58308328 21 21.58308328 21 24 C21.66 24 22.32 24 23 24 C23.42321533 22.90619019 23.42321533 22.90619019 23.85498047 21.7902832 C25.64748663 17.42214826 27.86466634 13.32835716 30.125 9.1875 C30.57359375 8.30384766 31.0221875 7.42019531 31.484375 6.50976562 C32.17660156 5.25776367 32.17660156 5.25776367 32.8828125 3.98046875 C33.28902832 3.21629639 33.69524414 2.45212402 34.11376953 1.66479492 C36 0 36 0 44 0 C44 12.87 44 25.74 44 39 C41.36 39 38.72 39 36 39 C35.505 28.605 35.505 28.605 35 18 C31.91631644 23.2101409 31.91631644 23.2101409 28.8684082 28.44116211 C25.62208875 33.77948026 25.62208875 33.77948026 22.16796875 35.00390625 C21.45253906 35.00261719 20.73710937 35.00132812 20 35 C19.10257372 33.66773831 18.20716849 32.33411523 17.3125 31 C16.81363281 30.2575 16.31476563 29.515 15.80078125 28.75 C13.47789523 25.20268599 11.24729776 21.59567642 9 18 C8.67 24.93 8.34 31.86 8 39 C5.36 39 2.72 39 0 39 C0 26.13 0 13.26 0 0 Z " fill="#042E55" transform="translate(398,266)"/>
<path d="M0 0 C3.465 -0.0825 6.93 -0.165 10.5 -0.25 C12.11358398 -0.30462402 12.11358398 -0.30462402 13.75976562 -0.36035156 C20.05404138 -0.4323525 24.76970852 0.35569994 30 4 C33.48473886 7.70253504 33.50169002 11.67395715 33.36328125 16.5546875 C32.80782087 20.29359282 31.47023237 22.16649816 29 25 C28.34 25.33 27.68 25.66 27 26 C28.64178265 30.77609498 31.26546702 34.79382904 34 39 C30.83635799 39.5810771 28.14455426 39.75130964 25 39 C22.07064092 36.37312908 19.92320778 33.42590711 18 30 C18 29.34 18 28.68 18 28 C14.7 28 11.4 28 8 28 C8 31.63 8 35.26 8 39 C5.36 39 2.72 39 0 39 C0 26.13 0 13.26 0 0 Z M8 7 C8 11.62 8 16.24 8 21 C10.0625 21.0825 12.125 21.165 14.25 21.25 C15.41015625 21.29640625 16.5703125 21.3428125 17.765625 21.390625 C21.06639289 21.27009457 21.06639289 21.27009457 23.38671875 19.171875 C25.22024564 17.03481667 25.22024564 17.03481667 25.5625 14 C25.21115636 10.92627964 25.21115636 10.92627964 23.25 8.625 C18.17541789 6.08770895 13.62891205 6.75257529 8 7 Z " fill="#042D54" transform="translate(292,266)"/>
<path d="M0 0 C3.67125 -0.061875 7.3425 -0.12375 11.125 -0.1875 C12.84420654 -0.22846802 12.84420654 -0.22846802 14.59814453 -0.27026367 C21.49778424 -0.3265206 26.06190406 0.30012806 31.3125 5.125 C33.60935017 9.03815214 34.19954025 12.48240876 34 17 C32.17525555 22.37285867 29.05197929 25.47401035 24 28 C21.44842345 28.0716735 18.92527029 28.09308442 16.375 28.0625 C15.66859375 28.05798828 14.9621875 28.05347656 14.234375 28.04882812 C12.48954725 28.03703875 10.744763 28.01910324 9 28 C9 31.63 9 35.26 9 39 C6.03 39 3.06 39 0 39 C0 26.13 0 13.26 0 0 Z M9 7 C9 11.62 9 16.24 9 21 C11.84625 21.0928125 11.84625 21.0928125 14.75 21.1875 C15.81734375 21.22230469 16.8846875 21.25710938 17.984375 21.29296875 C21.34387118 20.96659283 22.6814882 20.4238987 25 18 C25.46913089 13.62144505 25.46943529 11.70415293 23 8 C19.85069107 6.95023036 17.61185544 6.89868405 14.3125 6.9375 C12.559375 6.958125 10.80625 6.97875 9 7 Z " fill="#032D55" transform="translate(96,266)"/>
<path d="M0 0 C9.57 0 19.14 0 29 0 C29 2.31 29 4.62 29 7 C22.07 7 15.14 7 8 7 C8 9.97 8 12.94 8 16 C13.94 16 19.88 16 26 16 C26 18.31 26 20.62 26 23 C20.06 23 14.12 23 8 23 C8 25.97 8 28.94 8 32 C8.63091553 31.99476318 9.26183105 31.98952637 9.91186523 31.98413086 C12.75373347 31.96342174 15.59558588 31.95035934 18.4375 31.9375 C19.92733398 31.92493164 19.92733398 31.92493164 21.44726562 31.91210938 C22.39150391 31.90888672 23.33574219 31.90566406 24.30859375 31.90234375 C25.62041626 31.89448853 25.62041626 31.89448853 26.95874023 31.88647461 C29 32 29 32 30 33 C30 34.98 30 36.96 30 39 C20.1 39 10.2 39 0 39 C0 26.13 0 13.26 0 0 Z " fill="#042D54" transform="translate(148,266)"/>
<path d="M0 0 C2.97 0 5.94 0 9 0 C9.01458252 0.83249268 9.02916504 1.66498535 9.04418945 2.52270508 C9.1052863 5.61489653 9.17944556 8.70642082 9.26245117 11.7980957 C9.31201319 13.7929063 9.34651133 15.78807257 9.38085938 17.78320312 C9.41630859 19.03681641 9.45175781 20.29042969 9.48828125 21.58203125 C9.51446533 22.73936768 9.54064941 23.8967041 9.56762695 25.08911133 C9.77020534 27.97539359 9.77020534 27.97539359 11.32104492 29.84643555 C14.13074764 31.776906 16.64499849 31.88431029 20 32 C22.94755732 30.65437601 24.54277272 29.91445456 26 27 C26.15411106 24.9692523 26.24982453 22.93393579 26.31640625 20.8984375 C26.35830078 19.68671875 26.40019531 18.475 26.44335938 17.2265625 C26.48267578 15.95554687 26.52199219 14.68453125 26.5625 13.375 C26.60568359 12.09625 26.64886719 10.8175 26.69335938 9.5 C26.79969886 6.33344652 26.90172833 3.16681247 27 0 C29.64 0 32.28 0 35 0 C35.11690073 4.49977884 35.18748837 8.99916287 35.25 13.5 C35.30027344 15.40265625 35.30027344 15.40265625 35.3515625 17.34375 C35.42831646 24.71213037 35.18991144 29.83007731 31 36 C25.93891925 39.95643044 20.87131185 40.58257518 14.55078125 40.3203125 C9.8251443 39.72689408 7.07241247 38.07241247 3.75 34.75 C-0.78375305 27.62553092 -0.24595356 20.24547384 -0.125 12.0625 C-0.11597656 10.90169922 -0.10695313 9.74089844 -0.09765625 8.54492188 C-0.07421162 5.69639892 -0.04139522 2.84830922 0 0 Z " fill="#032D54" transform="translate(343,266)"/>
<path d="M0 0 C-0.33 1.98 -0.66 3.96 -1 6 C-4.44490844 7.14830281 -5.62473445 6.48188401 -8.94921875 5.4140625 C-12.6633543 4.66416085 -16.30069601 5.37925511 -20 6 C-20.13440778 8.42919865 -20.13440778 8.42919865 -19 11 C-16.28245868 12.23958025 -13.83623336 13.15599976 -11 14 C-5.59073525 15.70401747 -1.4233216 17.185954 2 22 C2.61966758 25.90390574 2.91769743 28.29570477 1.04296875 31.77734375 C-1.55980888 35.15682327 -4.01737578 36.72277357 -8 38 C-16.15840112 38.99239391 -22.68851247 37.62339205 -30 34 C-29.34 31.69 -28.68 29.38 -28 27 C-27.45472656 27.2165625 -26.90945312 27.433125 -26.34765625 27.65625 C-20.91063026 29.66376729 -15.81171046 30.8985978 -10 30 C-9.01 29.34 -8.02 28.68 -7 28 C-6.89040218 26.03514042 -6.89040218 26.03514042 -8 24 C-11.29188834 22.77493653 -14.5126243 21.91876545 -17.921875 21.109375 C-23.43427713 19.62994355 -25.83104322 17.79327699 -29 13 C-29.67238906 8.81624587 -29.27313318 6.6175185 -27.5625 2.75 C-20.30970835 -5.03348372 -9.10821018 -3.98074654 0 0 Z " fill="#062D53" transform="translate(77,268)"/>
<path d="M0 0 C0.44988281 0.34933594 0.89976562 0.69867188 1.36328125 1.05859375 C-0.41015625 4.87890625 -0.41015625 4.87890625 -2.44921875 6.49609375 C-3.17109375 6.68171875 -3.89296875 6.86734375 -4.63671875 7.05859375 C-5.35859375 6.60484375 -6.08046875 6.15109375 -6.82421875 5.68359375 C-10.78200436 3.39687317 -14.16467381 3.4812934 -18.63671875 4.05859375 C-22.43995027 5.46413583 -23.42833802 6.7224958 -25.57421875 10.18359375 C-27.24850201 14.68980756 -26.47217147 18.70570818 -24.63671875 23.05859375 C-21.49327863 26.75675859 -18.31711676 27.76930786 -13.625 28.17578125 C-10.54302972 27.99413271 -8.28210116 26.56165193 -5.63671875 25.05859375 C-1.63671875 25.05859375 -1.63671875 25.05859375 0.11328125 26.55859375 C0.52578125 27.05359375 0.93828125 27.54859375 1.36328125 28.05859375 C-0.37369911 32.17203978 -2.25205629 33.47673697 -6.23046875 35.29296875 C-13.26071795 37.52986622 -20.18418392 36.63219821 -26.6953125 33.32421875 C-31.62831468 30.10833805 -34.36827184 25.82426153 -35.63671875 20.05859375 C-36.10996674 14.19031863 -35.71124678 9.19305556 -32.63671875 4.05859375 C-23.72494139 -6.1578357 -11.13191108 -7.87487898 0 0 Z " fill="#052D54" transform="translate(228.63671875,269.94140625)"/>
<path d="M0 0 C2.85779017 1.29719924 4.91008536 2.6636826 7.11621094 4.88916016 C7.69651062 5.4696109 8.2768103 6.05006165 8.87469482 6.64810181 C9.48838928 7.27211884 10.10208374 7.89613586 10.734375 8.5390625 C11.37240051 9.17991791 12.01042603 9.82077332 12.66778564 10.48104858 C14.69994069 12.52437821 16.72502218 14.57455982 18.75 16.625 C20.1284453 18.0134786 21.50734636 19.4015049 22.88671875 20.7890625 C26.26311894 24.18748697 29.63319288 27.59207254 33 31 C32.0919838 32.13199353 31.17316174 33.25532363 30.25 34.375 C29.73953125 35.00148437 29.2290625 35.62796875 28.703125 36.2734375 C26.91800519 38.08312318 25.32050356 39.00117455 23 40 C18.69334572 35.81671836 14.40320585 31.61744121 10.12768555 27.40234375 C8.67022419 25.97006425 7.20831213 24.54229937 5.74194336 23.11914062 C3.6377681 21.07545062 1.55000979 19.01618391 -0.53515625 16.953125 C-1.19653091 16.31755676 -1.85790558 15.68198853 -2.5393219 15.02716064 C-3.14001999 14.42684021 -3.74071808 13.82651978 -4.35961914 13.20800781 C-4.89478653 12.68394348 -5.42995392 12.15987915 -5.9813385 11.61993408 C-7 10 -7 10 -6.75315857 7.90594482 C-5.84987556 5.62009475 -4.7253887 4.42376814 -2.9375 2.75 C-2.38964844 2.22921875 -1.84179688 1.7084375 -1.27734375 1.171875 C-0.64505859 0.59179688 -0.64505859 0.59179688 0 0 Z " fill="#042E55" transform="translate(227,188)"/>
<path d="M0 0 C3.21875524 0.45500247 4.85909051 1.48881538 7.11621094 3.77563477 C7.69651062 4.35616104 8.2768103 4.93668732 8.87469482 5.5348053 C9.48838928 6.16398361 10.10208374 6.79316193 10.734375 7.44140625 C11.37240051 8.08367661 12.01042603 8.72594696 12.66778564 9.38768005 C14.70234118 11.43901726 16.72621379 13.50054273 18.75 15.5625 C20.12821491 16.95576234 21.50711325 18.34834898 22.88671875 19.74023438 C26.26579046 23.15236865 29.63531864 26.57367707 33 30 C31.50427507 33.17483377 30.10891525 35.02236535 27.375 37.25 C26.74335938 37.77078125 26.11171875 38.2915625 25.4609375 38.828125 C24.97882813 39.21484375 24.49671875 39.6015625 24 40 C23.43796875 39.36578125 22.8759375 38.7315625 22.296875 38.078125 C12.92191408 27.66789232 2.95101175 17.85596168 -7 8 C-6.02133662 6.85373678 -5.04205413 5.70800212 -4.0625 4.5625 C-3.51722656 3.92441406 -2.97195312 3.28632812 -2.41015625 2.62890625 C-1.63204305 1.73008851 -0.84063472 0.84063472 0 0 Z " fill="#032E56" transform="translate(247,106)"/>
<path d="M0 0 C11.22 0 22.44 0 34 0 C34 2.31 34 4.62 34 7 C29.71 7 25.42 7 21 7 C21 17.56 21 28.12 21 39 C18.36 39 15.72 39 13 39 C13 28.44 13 17.88 13 7 C8.71 7 4.42 7 0 7 C0 4.69 0 2.38 0 0 Z " fill="#052D52" transform="translate(242,266)"/>
<path d="M0 0 C3.581146 0.86284858 5.09200189 2.5521746 7.15625 5.51953125 C8.21218376 8.8985193 8.35679272 10.80091983 7.40625 14.20703125 C5.31117958 18.08291153 5.31117958 18.08291153 3.15625 19.51953125 C-1.8343947 20.74673896 -3.68598979 21.12998664 -8.28125 18.70703125 C-11.64389081 15.83648422 -11.77323474 15.22468387 -12.21875 10.76953125 C-12.155931 7.64000268 -11.69807761 5.60567419 -9.90625 3.01953125 C-6.32537712 0.09636972 -4.50723971 -0.32301885 0 0 Z M-7.28125 5.08203125 C-9.16417676 7.53684554 -9.16417676 7.53684554 -8.84375 11.08203125 C-8.10669804 14.48227749 -8.10669804 14.48227749 -6.15625 16.51953125 C-2.98266085 17.89189413 -1.11492546 17.51510639 2.15625 16.51953125 C4.61949069 12.82467022 4.54616688 10.88660033 4.15625 6.51953125 C3.17576062 4.4555044 3.17576062 4.4555044 1.15625 3.51953125 C-2.45956862 2.98100507 -4.18486489 3.097169 -7.28125 5.08203125 Z " fill="#0B2F52" transform="translate(332.84375,325.48046875)"/>
<path d="M0 0 C3.0625 1.9375 3.0625 1.9375 5 5 C5.91259488 9.50593723 5.55514129 12.88971742 3.5 17 C0.12857828 19.69713738 -2.71532111 20.30665694 -7 20 C-10.62090756 18.42569236 -11.79255284 17.31117074 -14 14 C-14.82989594 9.33511124 -14.61181179 5.96705735 -12.0625 1.9375 C-7.94141507 -0.669717 -4.75058323 -1.03945854 0 0 Z M-9.875 4.0625 C-11.68953275 7.18752863 -11.49493962 9.47355518 -11 13 C-8.95118716 15.63926358 -8.95118716 15.63926358 -6 17 C-3.10518392 16.93107581 -1.59314642 16.38861317 0.8125 14.8125 C2.60972017 12.06937448 2.45774125 10.20418874 2 7 C0.5 4.5 0.5 4.5 -2 3 C-5.17235276 2.54680675 -7.06487736 2.47009717 -9.875 4.0625 Z " fill="#0A2C51" transform="translate(252,326)"/>
<path d="M0 0 C4.7058812 1.1764703 5.39507754 2.30351876 8.25 6.0625 C8.95640625 6.98160156 9.6628125 7.90070313 10.390625 8.84765625 C10.92171875 9.55792969 11.4528125 10.26820313 12 11 C12.33 7.37 12.66 3.74 13 0 C13.99 0 14.98 0 16 0 C16 6.27 16 12.54 16 19 C11.2941188 17.8235297 10.60492246 16.69648124 7.75 12.9375 C6.69039063 11.55884766 6.69039063 11.55884766 5.609375 10.15234375 C5.07828125 9.44207031 4.5471875 8.73179687 4 8 C3.67 11.63 3.34 15.26 3 19 C2.01 19 1.02 19 0 19 C0 12.73 0 6.46 0 0 Z " fill="#082E52" transform="translate(344,326)"/>
<path d="M0 0 C0.99 0.66 1.98 1.32 3 2 C2.67 2.99 2.34 3.98 2 5 C1.37351563 4.9278125 0.74703125 4.855625 0.1015625 4.78125 C-0.71570313 4.6884375 -1.53296875 4.595625 -2.375 4.5 C-3.18710938 4.4071875 -3.99921875 4.314375 -4.8359375 4.21875 C-6.96912825 3.96647649 -6.96912825 3.96647649 -9 4 C-10.31456225 9.53200212 -10.31456225 9.53200212 -8.4375 14.5625 C-6.00229388 16.31214416 -6.00229388 16.31214416 -2.75 15.75 C-1.8425 15.5025 -0.935 15.255 0 15 C0.33 13.68 0.66 12.36 1 11 C-0.98 11 -2.96 11 -5 11 C-5 10.34 -5 9.68 -5 9 C-2.03 9 0.94 9 4 9 C4.42969812 14.24231711 4.42969812 14.24231711 4 17 C1.35696375 19.48756353 -0.42486731 19.92810841 -4 20.375 C-7.45001843 19.9437477 -9.26337663 19.12848485 -12 17 C-14.3595588 13.2311484 -14.2156499 10.41860217 -13.59375 6.12890625 C-13 4 -13 4 -10.9375 1.4375 C-6.9079999 -0.53438303 -4.46817575 -0.43240411 0 0 Z " fill="#0C2E4F" transform="translate(169,326)"/>
<path d="M0 0 C4.95 0 9.9 0 15 0 C15 0.99 15 1.98 15 3 C11.04 3 7.08 3 3 3 C3 4.65 3 6.3 3 8 C6.3 8 9.6 8 13 8 C13.33 8.99 13.66 9.98 14 11 C10.37 11 6.74 11 3 11 C3 12.98 3 14.96 3 17 C6.96 17 10.92 17 15 17 C15 17.66 15 18.32 15 19 C10.05 19 5.1 19 0 19 C0 12.73 0 6.46 0 0 Z " fill="#0A2F53" transform="translate(138,326)"/>
<path d="M0 0 C1.32 0 2.64 0 4 0 C6.64 6.27 9.28 12.54 12 19 C10.68 19 9.36 19 8 19 C7.67 17.68 7.34 16.36 7 15 C3.7 15.33 0.4 15.66 -3 16 C-3.33 16.99 -3.66 17.98 -4 19 C-5.32 18.67 -6.64 18.34 -8 18 C-5.36 12.06 -2.72 6.12 0 0 Z M1 5 C-0.4606285 7.64738916 -1 8.89448334 -1 12 C0.98 12 2.96 12 5 12 C4.39816251 9.97954558 3.72693904 7.97888961 3 6 C2.34 5.67 1.68 5.34 1 5 Z " fill="#092D4F" transform="translate(183,326)"/>
<path d="M0 0 C1.9375 0.3359375 1.9375 0.3359375 4.9375 2.3359375 C4.6075 3.3259375 4.2775 4.3159375 3.9375 5.3359375 C-0.5175 4.3459375 -0.5175 4.3459375 -5.0625 3.3359375 C-5.0625 4.6559375 -5.0625 5.9759375 -5.0625 7.3359375 C-4.42441406 7.54089844 -3.78632813 7.74585938 -3.12890625 7.95703125 C-2.30261719 8.22644531 -1.47632813 8.49585938 -0.625 8.7734375 C0.19871094 9.04027344 1.02242188 9.30710937 1.87109375 9.58203125 C3.9375 10.3359375 3.9375 10.3359375 4.9375 11.3359375 C5.50938245 16.59725601 5.50938245 16.59725601 3.4375 19.2734375 C-0.47186781 20.93491882 -2.9350857 20.33450548 -7.0625 19.3359375 C-8.5625 17.2734375 -8.5625 17.2734375 -9.0625 15.3359375 C-5.32088897 15.3359375 -1.77296443 15.84931921 1.9375 16.3359375 C1.6075 15.3459375 1.2775 14.3559375 0.9375 13.3359375 C-1.13161771 12.27882559 -1.13161771 12.27882559 -3.5625 11.4609375 C-7.90606137 9.64881476 -7.90606137 9.64881476 -9.3125 6.8359375 C-9.0625 4.3359375 -9.0625 4.3359375 -8.125 2.0234375 C-5.37574145 -0.22595586 -3.45909172 -0.0655131 0 0 Z " fill="#082D52" transform="translate(373.0625,325.6640625)"/>
<path d="M0 0 C2 1.5 2 1.5 3 3 C2.01 3.66 1.02 4.32 0 5 C-0.33 4.67 -0.66 4.34 -1 4 C-2.99958364 3.95919217 -5.00045254 3.95745644 -7 4 C-6.363603 7.0836385 -6.363603 7.0836385 -4.1875 7.9140625 C-3.465625 8.14867187 -2.74375 8.38328125 -2 8.625 C1.93048128 9.93048128 1.93048128 9.93048128 3 11 C3.57188245 16.26131851 3.57188245 16.26131851 1.5 18.9375 C-2.1459343 20.48702208 -5.23198638 20.0800039 -9 19 C-11 17.4375 -11 17.4375 -12 16 C-11.01 15.34 -10.02 14.68 -9 14 C-8.01 14.66 -7.02 15.32 -6 16 C-2.87478167 16.16699232 -2.87478167 16.16699232 0 16 C-0.66227606 12.88896984 -0.66227606 12.88896984 -3.03125 11.8671875 C-3.8459375 11.53976562 -4.660625 11.21234375 -5.5 10.875 C-9.93582888 9.06417112 -9.93582888 9.06417112 -11 8 C-11.28417861 5.30030316 -11.32477191 3.58864909 -10 1.1875 C-6.82171718 -0.69960542 -3.59841436 -0.58474233 0 0 Z " fill="#0A2C4D" transform="translate(232,326)"/>
<path d="M0 0 C0.99 0 1.98 0 3 0 C3.04898437 0.98742187 3.09796875 1.97484375 3.1484375 2.9921875 C3.22320312 4.27351563 3.29796875 5.55484375 3.375 6.875 C3.44460938 8.15117187 3.51421875 9.42734375 3.5859375 10.7421875 C3.67241106 14.08061699 3.67241106 14.08061699 6 16 C9.30683466 15.71016731 9.30683466 15.71016731 12 14 C12.23527773 11.65012738 12.41386417 9.29443961 12.5625 6.9375 C12.64628906 5.64714844 12.73007812 4.35679687 12.81640625 3.02734375 C12.87699219 2.02832031 12.93757813 1.02929688 13 0 C13.99 0 14.98 0 16 0 C16.13572155 2.39774745 16.23436868 4.78775245 16.3125 7.1875 C16.35439453 7.86103516 16.39628906 8.53457031 16.43945312 9.22851562 C16.53581607 13.17939652 16.1466151 14.81458225 13.66796875 17.94921875 C11 20 11 20 8 20.625 C3.90865032 19.77263548 2.57782417 18.26006239 0 15 C-0.36771245 12.1612599 -0.48630804 9.98179849 -0.3125 7.1875 C-0.28994141 6.49462891 -0.26738281 5.80175781 -0.24414062 5.08789062 C-0.18562661 3.39098427 -0.0959548 1.69520139 0 0 Z " fill="#0C2D54" transform="translate(277,326)"/>
<path d="M0 0 C3.67125 -0.061875 7.3425 -0.12375 11.125 -0.1875 C12.84420654 -0.22846802 12.84420654 -0.22846802 14.59814453 -0.27026367 C20.14011934 -0.31545074 24.26286508 -0.23230762 29 3 C31.4375 5.5 31.4375 5.5 33 8 C32.67 8.99 32.34 9.98 32 11 C31.67 9.68 31.34 8.36 31 7 C30.01 7.495 30.01 7.495 29 8 C29 8.99 29 9.98 29 11 C28.34 11 27.68 11 27 11 C27 12.98 27 14.96 27 17 C24.3144406 14.3144406 23.93950026 11.62378672 23 8 C24.32 8.33 25.64 8.66 27 9 C26.22520264 6.00847418 26.22520264 6.00847418 25 3 C22.14493951 2.04831317 20.09062718 1.8099054 17.11328125 1.68359375 C15.845448 1.62643188 15.845448 1.62643188 14.55200195 1.56811523 C13.48296631 1.52501221 12.41393066 1.48190918 11.3125 1.4375 C7.909375 1.293125 4.50625 1.14875 1 1 C1 13.21 1 25.42 1 38 C0.67 38 0.34 38 0 38 C0 25.46 0 12.92 0 0 Z " fill="#072846" transform="translate(96,266)"/>
<path d="M0 0 C0.99 0.33 1.98 0.66 3 1 C3.02892857 4.95831809 3.04677427 8.91660917 3.0625 12.875 C3.07087891 14.00292969 3.07925781 15.13085938 3.08789062 16.29296875 C3.09111328 17.36933594 3.09433594 18.44570313 3.09765625 19.5546875 C3.10289307 20.54968262 3.10812988 21.54467773 3.11352539 22.56982422 C3 25 3 25 2 27 C1.34 27 0.68 27 0 27 C-1.53097994 22.40706019 -1.45830454 17.75060471 -1.6875 12.9375 C-1.74744141 11.91849609 -1.80738281 10.89949219 -1.86914062 9.84960938 C-1.91619141 8.87701172 -1.96324219 7.90441406 -2.01171875 6.90234375 C-2.08072388 5.56417603 -2.08072388 5.56417603 -2.15112305 4.19897461 C-2 2 -2 2 0 0 Z " fill="#002F5B" transform="translate(258,273)"/>
<path d="M0 0 C4.95 0 9.9 0 15 0 C15 0.99 15 1.98 15 3 C13.02 3 11.04 3 9 3 C9 8.28 9 13.56 9 19 C8.01 19 7.02 19 6 19 C6 13.72 6 8.44 6 3 C4.02 3 2.04 3 0 3 C0 2.01 0 1.02 0 0 Z " fill="#0D3054" transform="translate(296,326)"/>
<path d="M0 0 C0.99 0 1.98 0 3 0 C3 5.61 3 11.22 3 17 C6.63 17 10.26 17 14 17 C14 17.66 14 18.32 14 19 C9.38 19 4.76 19 0 19 C0 12.73 0 6.46 0 0 Z " fill="#0E3155" transform="translate(122,326)"/>
<path d="M0 0 C0.99 0 1.98 0 3 0 C3 5.61 3 11.22 3 17 C6.63 17 10.26 17 14 17 C14 17.66 14 18.32 14 19 C9.38 19 4.76 19 0 19 C0 12.73 0 6.46 0 0 Z " fill="#0A2D50" transform="translate(197,326)"/>
<path d="M0 0 C0.99 0 1.98 0 3 0 C3 5.61 3 11.22 3 17 C6.3 17 9.6 17 13 17 C13 17.66 13 18.32 13 19 C8.71 19 4.42 19 0 19 C0 12.73 0 6.46 0 0 Z " fill="#06305A" transform="translate(261,326)"/>
<path d="M0 0 C11.22 0 22.44 0 34 0 C34 2.31 34 4.62 34 7 C32.35 7 30.7 7 29 7 C29.99 6.67 30.98 6.34 32 6 C32 4.68 32 3.36 32 2 C22.43 2 12.86 2 3 2 C3 2.99 3 3.98 3 5 C5.97 5.33 8.94 5.66 12 6 C12 6.33 12 6.66 12 7 C8.04 7 4.08 7 0 7 C0 4.69 0 2.38 0 0 Z " fill="#0B2947" transform="translate(242,266)"/>
<path d="M0 0 C0.99 0 1.98 0 3 0 C3 6.27 3 12.54 3 19 C2.01 19 1.02 19 0 19 C0 12.73 0 6.46 0 0 Z " fill="#0C3054" transform="translate(314,326)"/>
<path d="M0 0 C3.68886475 -0.20493693 5.78443181 0.23662389 9 2 C10.3242287 2.36784131 11.65613912 2.71202981 13 3 C10.38578262 5.61421738 8.48890293 5.66494108 4.91015625 6.03515625 C3 6 3 6 1 4.75 C0 3 0 3 0 0 Z " fill="#023059" transform="translate(52,299)"/>
<path d="M0 0 C2.64 0 5.28 0 8 0 C8 9.24 8 18.48 8 28 C7.67 28 7.34 28 7 28 C7 19.75 7 11.5 7 3 C6.01 3 5.02 3 4 3 C3.67 3.66 3.34 4.32 3 5 C2.67 4.01 2.34 3.02 2 2 C1.34 1.34 0.68 0.68 0 0 Z " fill="#0B2D4F" transform="translate(370,266)"/>
<path d="M0 0 C2.875 0.25 2.875 0.25 6 1 C7.375 3.0625 7.375 3.0625 8 5 C5.36 5.33 2.72 5.66 0 6 C0 5.34 0 4.68 0 4 C-0.66 4 -1.32 4 -2 4 C-1.34 2.68 -0.68 1.36 0 0 Z " fill="#032F59" transform="translate(211,266)"/>
<path d="M0 0 C2.62187494 1.04874998 3.79371361 1.64931313 5.25 4.125 C5.4975 4.74375 5.745 5.3625 6 6 C4.35 7.32 2.7 8.64 1 10 C0.67 9.34 0.34 8.68 0 8 C0.66 7.67 1.32 7.34 2 7 C2.65213292 4.97536745 2.65213292 4.97536745 3 3 C2.443125 3.33 1.88625 3.66 1.3125 4 C-1.30284522 5.1309601 -3.1806646 5.15662974 -6 5 C-5.195625 4.360625 -4.39125 3.72125 -3.5625 3.0625 C-1.7249496 1.59396498 -1.7249496 1.59396498 0 0 Z " fill="#0D2B47" transform="translate(224,294)"/>
<path d="M0 0 C3.63 0 7.26 0 11 0 C11 0.33 11 0.66 11 1 C8.03 1 5.06 1 2 1 C2 2.32 2 3.64 2 5 C4.64 5.33 7.28 5.66 10 6 C10 6.33 10 6.66 10 7 C6.7 7 3.4 7 0 7 C0 4.69 0 2.38 0 0 Z " fill="#0C2C49" transform="translate(300,287)"/>
<path d="M0 0 C3 2 3 2 3.6875 4.125 C3.790625 4.74375 3.89375 5.3625 4 6 C2.02 6 0.04 6 -2 6 C-2 4.35 -2 2.7 -2 1 C-1.34 0.67 -0.68 0.34 0 0 Z " fill="#033058" transform="translate(319,299)"/>
<path d="M0 0 C-2.71129502 2.71129502 -5.31753779 3.0955356 -9 4 C-9.99 4 -10.98 4 -12 4 C-5.27272727 -1.63636364 -5.27272727 -1.63636364 0 0 Z " fill="#0C2944" transform="translate(211,267)"/>
<path d="M0 0 C1.65 1.32 3.3 2.64 5 4 C4.65120368 7.25543229 3.97866739 8.01873107 1.4375 10.25 C0.633125 10.8275 -0.17125 11.405 -1 12 C-1.33 11.34 -1.66 10.68 -2 10 C-0.68 9.01 0.64 8.02 2 7 C1.34 4.69 0.68 2.38 0 0 Z " fill="#0C2B48" transform="translate(280,188)"/>
<path d="M0 0 C0 0.66 0 1.32 0 2 C-0.66 2 -1.32 2 -2 2 C-2 2.66 -2 3.32 -2 4 C-2.66 4 -3.32 4 -4 4 C-4 4.66 -4 5.32 -4 6 C-5.32 5.34 -6.64 4.68 -8 4 C-3.375 0 -3.375 0 0 0 Z " fill="#0B2D58" transform="translate(164,326)"/>
<path d="M0 0 C2.475 0.99 2.475 0.99 5 2 C5 2.66 5 3.32 5 4 C5.99 4.33 6.98 4.66 8 5 C5.36 5 2.72 5 0 5 C0 3.35 0 1.7 0 0 Z " fill="#052B4E" transform="translate(398,300)"/>
<path d="M0 0 C0.99 0.33 1.98 0.66 3 1 C1.95125002 3.62187494 1.35068687 4.79371361 -1.125 6.25 C-1.74375 6.4975 -2.3625 6.745 -3 7 C-3.99 6.01 -4.98 5.02 -6 4 C-4.02 4 -2.04 4 0 4 C0 2.68 0 1.36 0 0 Z " fill="#102C46" transform="translate(227,270)"/>
<path d="M0 0 C2.31 0.33 4.62 0.66 7 1 C7 1.99 7 2.98 7 4 C4 4 4 4 1.8125 2 C1.214375 1.34 0.61625 0.68 0 0 Z " fill="#0F2F4E" transform="translate(227,326)"/>
<path d="M0 0 C1.06546953 3.1964086 1.07427838 5.65747276 1 9 C-0.32 8.01 -1.64 7.02 -3 6 C-2.42655063 3.13275314 -2.1385485 2.1385485 0 0 Z " fill="#0B2A46" transform="translate(223,192)"/>
<path d="M0 0 C4.24846075 0.47205119 6.26819288 2.88877522 9 6 C9 6.66 9 7.32 9 8 C4.7257442 6.4169423 2.73468206 3.49431596 0 0 Z " fill="#0B2C4A" transform="translate(269,194)"/>
<path d="M0 0 C1.32 0.33 2.64 0.66 4 1 C4.33 2.32 4.66 3.64 5 5 C3.35 4.67 1.7 4.34 0 4 C0 2.68 0 1.36 0 0 Z " fill="#082B4D" transform="translate(344,326)"/>
<path d="M0 0 C1.65 0 3.3 0 5 0 C5.33 0.99 5.66 1.98 6 3 C4.02 3 2.04 3 0 3 C0 2.01 0 1.02 0 0 Z " fill="#113051" transform="translate(146,334)"/>
<path d="M0 0 C2.475 0.495 2.475 0.495 5 1 C5.66 2.98 6.32 4.96 7 7 C5.83040013 6.02433888 4.66438823 5.044375 3.5 4.0625 C2.8503125 3.51722656 2.200625 2.97195312 1.53125 2.41015625 C1.0259375 1.94480469 0.520625 1.47945312 0 1 C0 0.67 0 0.34 0 0 Z " fill="#0B2A47" transform="translate(234,211)"/>
<path d="M0 0 C0.99 0.495 0.99 0.495 2 1 C1.01 1.495 1.01 1.495 0 2 C0 1.34 0 0.68 0 0 Z M-1 2 C-0.67 2.66 -0.34 3.32 0 4 C0.99 4.66 1.98 5.32 3 6 C2.01 6.66 1.02 7.32 0 8 C-0.99 6.35 -1.98 4.7 -3 3 C-2.34 2.67 -1.68 2.34 -1 2 Z " fill="#072A4A" transform="translate(271,138)"/>
<path d="" fill="#FFFFFF" transform="translate(0,0)"/>
<path d="" fill="#FFFFFF" transform="translate(0,0)"/>
<path d="" fill="#FFFFFF" transform="translate(0,0)"/>
<path d="" fill="#FFFFFF" transform="translate(0,0)"/>
<path d="" fill="#FFFFFF" transform="translate(0,0)"/>
<path d="" fill="#FFFFFF" transform="translate(0,0)"/>
<path d="" fill="#FFFFFF" transform="translate(0,0)"/>
<path d="" fill="#FFFFFF" transform="translate(0,0)"/>
<path d="" fill="#FFFFFF" transform="translate(0,0)"/>
<path d="" fill="#FFFFFF" transform="translate(0,0)"/>
<path d="" fill="#FFFFFF" transform="translate(0,0)"/>
<path d="" fill="#FFFFFF" transform="translate(0,0)"/>
<path d="" fill="#FFFFFF" transform="translate(0,0)"/>
<path d="" fill="#FFFFFF" transform="translate(0,0)"/>
<path d="" fill="#FFFFFF" transform="translate(0,0)"/>
<path d="" fill="#FFFFFF" transform="translate(0,0)"/>
<path d="" fill="#FFFFFF" transform="translate(0,0)"/>
<path d="" fill="#FFFFFF" transform="translate(0,0)"/>
<path d="" fill="#FFFFFF" transform="translate(0,0)"/>
<path d="" fill="#FFFFFF" transform="translate(0,0)"/>
<path d="" fill="#FFFFFF" transform="translate(0,0)"/>
<path d="" fill="#FFFFFF" transform="translate(0,0)"/>
<path d="" fill="#FFFFFF" transform="translate(0,0)"/>
<path d="" fill="#FFFFFF" transform="translate(0,0)"/>
<path d="" fill="#FFFFFF" transform="translate(0,0)"/>
<path d="" fill="#FFFFFF" transform="translate(0,0)"/>
<path d="" fill="#FFFFFF" transform="translate(0,0)"/>
<path d="" fill="#FFFFFF" transform="translate(0,0)"/>
<path d="" fill="#FFFFFF" transform="translate(0,0)"/>
<path d="" fill="#FFFFFF" transform="translate(0,0)"/>
<path d="" fill="#FFFFFF" transform="translate(0,0)"/>
<path d="" fill="#FFFFFF" transform="translate(0,0)"/>
<path d="" fill="#FFFFFF" transform="translate(0,0)"/>
<path d="" fill="#FFFFFF" transform="translate(0,0)"/>
<path d="" fill="#FFFFFF" transform="translate(0,0)"/>
<path d="" fill="#FFFFFF" transform="translate(0,0)"/>
<path d="" fill="#FFFFFF" transform="translate(0,0)"/>
<path d="" fill="#00FF00" transform="translate(0,0)"/>
<path d="" fill="#FFFFFF" transform="translate(0,0)"/>
<path d="" fill="#FFFFFF" transform="translate(0,0)"/>
<path d="" fill="#FFFFFF" transform="translate(0,0)"/>
<path d="" fill="#FFFFFF" transform="translate(0,0)"/>
<path d="" fill="#FFFFFF" transform="translate(0,0)"/>
<path d="" fill="#FFFFFF" transform="translate(0,0)"/>
<path d="" fill="#FFFFFF" transform="translate(0,0)"/>
<path d="" fill="#FFFFFF" transform="translate(0,0)"/>
<path d="" fill="#FFFFFF" transform="translate(0,0)"/>
<path d="" fill="#FFFFFF" transform="translate(0,0)"/>
<path d="" fill="#FFFFFF" transform="translate(0,0)"/>
<path d="" fill="#FFFFFF" transform="translate(0,0)"/>
<path d="" fill="#FFFFFF" transform="translate(0,0)"/>
<path d="" fill="#FFFFFF" transform="translate(0,0)"/>
<path d="" fill="#FFFFFF" transform="translate(0,0)"/>
<path d="" fill="#FFFFFF" transform="translate(0,0)"/>
<path d="" fill="#FFFFFF" transform="translate(0,0)"/>
<path d="" fill="#FFFFFF" transform="translate(0,0)"/>
<path d="" fill="#FFFFFF" transform="translate(0,0)"/>
<path d="" fill="#FFFFFF" transform="translate(0,0)"/>
<path d="" fill="#FFFFFF" transform="translate(0,0)"/>
<path d="" fill="#FFFFFF" transform="translate(0,0)"/>
<path d="" fill="#FFFFFF" transform="translate(0,0)"/>
<path d="" fill="#FFFFFF" transform="translate(0,0)"/>
<path d="" fill="#FFFFFF" transform="translate(0,0)"/>
<path d="" fill="#FFFFFF" transform="translate(0,0)"/>
<path d="" fill="#FFFFFF" transform="translate(0,0)"/>
<path d="" fill="#FFFFFF" transform="translate(0,0)"/>
<path d="" fill="#FFFFFF" transform="translate(0,0)"/>
<path d="" fill="#FFFFFF" transform="translate(0,0)"/>
<path d="" fill="#FFFFFF" transform="translate(0,0)"/>
<path d="" fill="#FFFFFF" transform="translate(0,0)"/>
<path d="" fill="#FFFFFF" transform="translate(0,0)"/>
<path d="" fill="#FFFFFF" transform="translate(0,0)"/>
<path d="" fill="#FFFFFF" transform="translate(0,0)"/>
<path d="" fill="#FFFFFF" transform="translate(0,0)"/>
<path d="" fill="#FFFFFF" transform="translate(0,0)"/>
<path d="" fill="#FFFFFF" transform="translate(0,0)"/>
<path d="" fill="#FFFFFF" transform="translate(0,0)"/>
<path d="" fill="#FFFFFF" transform="translate(0,0)"/>
<path d="" fill="#FFFFFF" transform="translate(0,0)"/>
<path d="" fill="#FFFFFF" transform="translate(0,0)"/>
<path d="" fill="#FFFFFF" transform="translate(0,0)"/>
<path d="" fill="#FFFFFF" transform="translate(0,0)"/>
<path d="" fill="#FFFFFF" transform="translate(0,0)"/>
<path d="" fill="#FFFFFF" transform="translate(0,0)"/>
<path d="" fill="#FFFFFF" transform="translate(0,0)"/>
<path d="" fill="#FFFFFF" transform="translate(0,0)"/>
<path d="" fill="#FFFFFF" transform="translate(0,0)"/>
<path d="" fill="#FFFFFF" transform="translate(0,0)"/>
<path d="" fill="#FFFFFF" transform="translate(0,0)"/>
<path d="" fill="#FFFFFF" transform="translate(0,0)"/>
<path d="" fill="#FFFFFF" transform="translate(0,0)"/>
<path d="" fill="#FFFFFF" transform="translate(0,0)"/>
<path d="" fill="#FFFFFF" transform="translate(0,0)"/>
<path d="" fill="#FFFFFF" transform="translate(0,0)"/>
<path d="" fill="#FFFFFF" transform="translate(0,0)"/>
<path d="" fill="#FFFFFF" transform="translate(0,0)"/>
<path d="" fill="#FFFFFF" transform="translate(0,0)"/>
<path d="" fill="#FFFFFF" transform="translate(0,0)"/>
<path d="" fill="#FFFFFF" transform="translate(0,0)"/>
</svg>
